<svg width="283" height="53" viewBox="0 0 283 53" fill="none" xmlns="http://www.w3.org/2000/svg">
<path d="M99.0824 52.1818V10.1818H108.707V15.4119H109.006C109.403 14.4839 109.967 13.589 110.696 12.7273C111.438 11.8655 112.38 11.1629 113.52 10.6193C114.673 10.0625 116.052 9.78409 117.656 9.78409C119.777 9.78409 121.759 10.3409 123.602 11.4545C125.458 12.5682 126.956 14.285 128.097 16.6051C129.237 18.9252 129.807 21.8816 129.807 25.4744C129.807 28.9347 129.257 31.8314 128.156 34.1648C127.069 36.4981 125.598 38.2481 123.741 39.4148C121.899 40.5814 119.85 41.1648 117.597 41.1648C116.059 41.1648 114.726 40.9129 113.599 40.4091C112.473 39.9053 111.525 39.2424 110.756 38.4205C110 37.5985 109.417 36.7169 109.006 35.7756H108.807V52.1818H99.0824ZM108.608 25.4545C108.608 27.0985 108.827 28.5303 109.264 29.75C109.715 30.9697 110.358 31.9176 111.193 32.5938C112.042 33.2566 113.056 33.5881 114.236 33.5881C115.429 33.5881 116.443 33.2566 117.278 32.5938C118.114 31.9176 118.743 30.9697 119.168 29.75C119.605 28.5303 119.824 27.0985 119.824 25.4545C119.824 23.8106 119.605 22.3854 119.168 21.179C118.743 19.9725 118.114 19.0379 117.278 18.375C116.456 17.7121 115.442 17.3807 114.236 17.3807C113.043 17.3807 112.028 17.7055 111.193 18.3551C110.358 19.0047 109.715 19.9328 109.264 21.1392C108.827 22.3456 108.608 23.7841 108.608 25.4545Z" fill="white"/>
<path d="M140.154 41.2443C138.205 41.2443 136.475 40.9195 134.963 40.2699C133.465 39.607 132.279 38.6127 131.404 37.2869C130.542 35.9479 130.111 34.2708 130.111 32.2557C130.111 30.5587 130.409 29.1269 131.006 27.9602C131.602 26.7936 132.424 25.8456 133.472 25.1165C134.519 24.3873 135.725 23.8371 137.091 23.4659C138.457 23.0814 139.915 22.8229 141.466 22.6903C143.203 22.5313 144.601 22.3655 145.662 22.1932C146.723 22.0076 147.492 21.7491 147.969 21.4176C148.459 21.0729 148.705 20.589 148.705 19.9659V19.8665C148.705 18.8456 148.353 18.0568 147.651 17.5C146.948 16.9432 146 16.6648 144.807 16.6648C143.521 16.6648 142.487 16.9432 141.705 17.5C140.922 18.0568 140.425 18.8258 140.213 19.8068L131.244 19.4886C131.51 17.6326 132.192 15.9754 133.293 14.517C134.406 13.0455 135.931 11.892 137.867 11.0568C139.815 10.2083 142.155 9.78409 144.886 9.78409C146.835 9.78409 148.632 10.0161 150.276 10.4801C151.92 10.9309 153.351 11.5938 154.571 12.4688C155.791 13.3305 156.732 14.3911 157.395 15.6506C158.071 16.91 158.409 18.3485 158.409 19.9659V40.7273H149.261V36.4716H149.023C148.479 37.5057 147.783 38.3807 146.935 39.0966C146.1 39.8125 145.112 40.3494 143.972 40.7074C142.845 41.0653 141.572 41.2443 140.154 41.2443ZM143.156 34.8807C144.204 34.8807 145.145 34.6686 145.98 34.2443C146.829 33.8201 147.505 33.2367 148.009 32.4943C148.512 31.7386 148.764 30.8636 148.764 29.8693V26.9659C148.486 27.1117 148.148 27.2443 147.75 27.3636C147.366 27.483 146.941 27.5956 146.477 27.7017C146.013 27.8078 145.536 27.9006 145.046 27.9801C144.555 28.0597 144.084 28.1326 143.634 28.1989C142.719 28.3447 141.937 28.5701 141.287 28.875C140.651 29.1799 140.16 29.5777 139.815 30.0682C139.484 30.5455 139.318 31.1155 139.318 31.7784C139.318 32.786 139.676 33.5549 140.392 34.0852C141.121 34.6155 142.043 34.8807 143.156 34.8807Z" fill="white"/>
<path d="M165.847 52.1818C164.681 52.1818 163.58 52.089 162.546 51.9034C161.512 51.7311 160.624 51.4991 159.882 51.2074L162.029 44.1477C162.984 44.4659 163.846 44.6515 164.615 44.7045C165.397 44.7576 166.066 44.6316 166.623 44.3267C167.193 44.035 167.631 43.5114 167.936 42.7557L168.313 41.8409L157.455 10.1818H167.637L173.265 31.9773H173.583L179.291 10.1818H189.532L178.018 43.6506C177.461 45.321 176.672 46.7926 175.651 48.0653C174.644 49.3513 173.338 50.3589 171.734 51.0881C170.143 51.8172 168.181 52.1818 165.847 52.1818Z" fill="white"/>
<path d="M203.155 52.8182C200.252 52.8182 197.766 52.4138 195.698 51.6051C193.63 50.7964 192.005 49.6894 190.826 48.2841C189.646 46.8788 188.936 45.2879 188.698 43.5114L197.905 42.9943C198.077 43.6174 198.396 44.161 198.86 44.625C199.337 45.089 199.953 45.447 200.709 45.6989C201.478 45.9508 202.38 46.0767 203.414 46.0767C205.044 46.0767 206.39 45.679 207.451 44.8835C208.524 44.1013 209.061 42.7292 209.061 40.767V35.3977H208.723C208.339 36.339 207.755 37.1809 206.973 37.9233C206.191 38.6657 205.217 39.2491 204.05 39.6733C202.897 40.0975 201.571 40.3097 200.073 40.3097C197.845 40.3097 195.804 39.7926 193.948 38.7585C192.105 37.7112 190.627 36.0938 189.513 33.9063C188.413 31.7055 187.862 28.875 187.862 25.4148C187.862 21.8485 188.433 18.9119 189.573 16.6051C190.713 14.285 192.204 12.5682 194.047 11.4545C195.903 10.3409 197.898 9.78409 200.033 9.78409C201.637 9.78409 203.009 10.0625 204.149 10.6193C205.303 11.1629 206.251 11.8655 206.993 12.7273C207.736 13.589 208.299 14.4839 208.684 15.4119H208.962V10.1818H218.647V40.8466C218.647 43.4318 217.997 45.6127 216.698 47.3892C215.398 49.1657 213.582 50.5114 211.249 51.4261C208.916 52.3542 206.218 52.8182 203.155 52.8182ZM203.453 33.2301C204.633 33.2301 205.641 32.9186 206.476 32.2955C207.311 31.6723 207.954 30.7775 208.405 29.6108C208.856 28.4441 209.081 27.0455 209.081 25.4148C209.081 23.7576 208.856 22.3324 208.405 21.1392C207.968 19.9328 207.325 19.0047 206.476 18.3551C205.641 17.7055 204.633 17.3807 203.453 17.3807C202.247 17.3807 201.226 17.7121 200.391 18.375C199.556 19.0379 198.919 19.9725 198.482 21.179C198.058 22.3722 197.845 23.7841 197.845 25.4148C197.845 27.0455 198.064 28.4441 198.502 29.6108C198.939 30.7775 199.569 31.6723 200.391 32.2955C201.226 32.9186 202.247 33.2301 203.453 33.2301Z" fill="white"/>
<path d="M235.745 41.304C232.536 41.304 229.779 40.6477 227.472 39.3352C225.178 38.0095 223.409 36.1667 222.162 33.8068C220.929 31.4337 220.313 28.6828 220.313 25.554C220.313 22.4119 220.929 19.661 222.162 17.3011C223.409 14.928 225.178 13.0852 227.472 11.7727C229.779 10.447 232.536 9.78409 235.745 9.78409C238.953 9.78409 241.704 10.447 243.998 11.7727C246.304 13.0852 248.074 14.928 249.307 17.3011C250.553 19.661 251.176 22.4119 251.176 25.554C251.176 28.6828 250.553 31.4337 249.307 33.8068C248.074 36.1667 246.304 38.0095 243.998 39.3352C241.704 40.6477 238.953 41.304 235.745 41.304ZM235.804 33.9659C236.971 33.9659 237.959 33.608 238.767 32.892C239.576 32.1761 240.193 31.1818 240.617 29.9091C241.054 28.6364 241.273 27.1648 241.273 25.4943C241.273 23.7974 241.054 22.3125 240.617 21.0398C240.193 19.767 239.576 18.7727 238.767 18.0568C237.959 17.3409 236.971 16.983 235.804 16.983C234.598 16.983 233.577 17.3409 232.742 18.0568C231.92 18.7727 231.29 19.767 230.853 21.0398C230.428 22.3125 230.216 23.7974 230.216 25.4943C230.216 27.1648 230.428 28.6364 230.853 29.9091C231.29 31.1818 231.92 32.1761 232.742 32.892C233.577 33.608 234.598 33.9659 235.804 33.9659Z" fill="white"/>
<path d="M263.954 41.1648C261.7 41.1648 259.652 40.5814 257.809 39.4148C255.967 38.2481 254.495 36.4981 253.395 34.1648C252.294 31.8314 251.744 28.9347 251.744 25.4744C251.744 21.8816 252.314 18.9252 253.454 16.6051C254.594 14.285 256.086 12.5682 257.929 11.4545C259.785 10.3409 261.78 9.78409 263.915 9.78409C265.519 9.78409 266.891 10.0625 268.031 10.6193C269.171 11.1629 270.112 11.8655 270.855 12.7273C271.597 13.589 272.161 14.4839 272.545 15.4119H272.744V0H282.468V40.7273H272.843V35.7756H272.545C272.134 36.7169 271.551 37.5985 270.795 38.4205C270.04 39.2424 269.092 39.9053 267.951 40.4091C266.825 40.9129 265.492 41.1648 263.954 41.1648ZM267.335 33.5881C268.515 33.5881 269.522 33.2566 270.358 32.5938C271.193 31.9176 271.836 30.9697 272.287 29.75C272.737 28.5303 272.963 27.0985 272.963 25.4545C272.963 23.7841 272.737 22.3456 272.287 21.1392C271.849 19.9328 271.206 19.0047 270.358 18.3551C269.522 17.7055 268.515 17.3807 267.335 17.3807C266.129 17.3807 265.108 17.7121 264.272 18.375C263.437 19.0379 262.801 19.9725 262.363 21.179C261.939 22.3854 261.727 23.8106 261.727 25.4545C261.727 27.0985 261.946 28.5303 262.383 29.75C262.821 30.9697 263.45 31.9176 264.272 32.5938C265.108 33.2566 266.129 33.5881 267.335 33.5881Z" fill="white"/>
<path d="M58.8809 4.89319L79.2314 25.2447L79.2295 25.2457L79.2695 25.2555L58.9189 45.6061L3.31836 45.6061L38.5566 25.2614L3.28027 4.89417L3.28027 4.89319L58.8809 4.89319ZM57.041 41.0748L70.5156 27.6012L70.4756 27.5914L51.4316 32.694L43.0898 27.8785L20.2314 41.0758L57.041 41.0748Z" fill="#ED3134"/>
</svg>
